Coordinates
version=1
nRows=11
nColumns=40
inDegrees=yes
endheader
time	pelvis_tilt	pelvis_list	pelvis_rotation	pelvis_tx	pelvis_ty	pelvis_tz	hip_flexion_r	hip_adduction_r	hip_rotation_r	knee_angle_r	knee_angle_r_beta	ankle_angle_r	subtalar_angle_r	mtp_angle_r	hip_flexion_l	hip_adduction_l	hip_rotation_l	knee_angle_l	knee_angle_l_beta	ankle_angle_l	subtalar_angle_l	mtp_angle_l	lumbar_extension	lumbar_bending	lumbar_rotation	arm_flex_r	arm_add_r	arm_rot_r	elbow_flex_r	pro_sup_r	wrist_flex_r	wrist_dev_r	arm_flex_l	arm_add_l	arm_rot_l	elbow_flex_l	pro_sup_l	wrist_flex_l	wrist_dev_l
1760625395.47394109	      5.82996553	     -2.07847393	     -0.09795175	      0.18794870	      0.83403166	      0.00042037	     80.00000000	     -7.00000000	      0.00000000	     80.00000000	      1.39626340	      0.00000000	      0.00000000	      0.00000000	     80.00000000	     -7.00000000	      0.00000000	     80.00000000	      1.39626340	      0.00000000	      0.00000000	      0.00000000	    -11.84089670	     -0.29171562	      3.16191352	      4.16897173	     -1.45478682	     10.62040098	      0.00000000	      7.06438982	    -70.00000021	    -24.99999983	      6.97174116	     -0.72465632	      1.37057988	      0.00000000	     19.25947332	    -70.00000021	    -24.99999983
1760625395.48394108	      5.81330898	     -2.07528850	     -0.09195891	      0.18780855	      0.83410228	      0.00034423	     80.00000000	     -7.00000000	      0.00000000	     80.00000000	      1.39626340	      0.00000000	      0.00000000	      0.00000000	     80.00000000	     -7.00000000	      0.00000000	     80.00000000	      1.39626340	      0.00000000	      0.00000000	      0.00000000	    -11.85749642	     -0.28896929	      3.16920983	      4.16909889	     -1.45962469	     10.62106399	      0.00000000	      7.06263493	    -70.00000021	    -24.99999983	      6.95147143	     -0.73047607	      1.37050507	      0.00000000	     19.26311607	    -70.00000021	    -24.99999983
1760625395.49394107	      5.80477969	     -2.07926470	     -0.09678709	      0.18777268	      0.83400962	      0.00032739	     80.00000000	     -7.00000000	      0.00000000	     80.00000000	      1.39626340	      0.00000000	      0.00000000	      0.00000000	     80.00000000	     -7.00000000	      0.00000000	     80.00000000	      1.39626340	      0.00000000	      0.00000000	      0.00000000	    -11.86707330	     -0.29011731	      3.16419056	      4.16642457	     -1.47906357	     10.62346100	      0.00000000	      7.05962739	    -70.00000021	    -24.99999983	      6.95084878	     -0.75250291	      1.37276219	      0.00000000	     19.27133401	    -70.00000021	    -24.99999983
1760625395.50394106	      5.80263309	     -2.08112543	     -0.09663447	      0.18768362	      0.83411882	      0.00025817	     80.00000000	     -7.00000000	      0.00000000	     80.00000000	      1.39626340	      0.00000000	      0.00000000	      0.00000000	     80.00000000	     -7.00000000	      0.00000000	     80.00000000	      1.39626340	      0.00000000	      0.00000000	      0.00000000	    -11.86874105	     -0.29148382	      3.16449665	      4.16638829	     -1.48115710	     10.62373503	      0.00000000	      7.05935757	    -70.00000021	    -24.99999983	      6.94881437	     -0.75501457	      1.37286300	      0.00000000	     19.27207304	    -70.00000021	    -24.99999983
1760625395.51394105	      5.78641674	     -2.08290901	     -0.09533078	      0.18763974	      0.83402322	      0.00029753	     80.00000000	     -7.00000000	      0.00000000	     80.00000000	      1.39626340	      0.00000000	      0.00000000	      0.00000000	     80.00000000	     -7.00000000	      0.00000000	     80.00000000	      1.39626340	      0.00000000	      0.00000000	      0.00000000	    -11.88560201	     -0.29122051	      3.16508023	      4.16255140	     -1.50036494	     10.62756829	      0.00000000	      7.05627622	    -70.00000021	    -24.99999983	      6.94366894	     -0.78352704	      1.37653972	      0.00000000	     19.28329086	    -70.00000021	    -24.99999983
1760625395.52394104	      5.77474943	     -2.08391165	     -0.09386023	      0.18743196	      0.83409204	      0.00019475	     80.00000000	     -7.00000000	      0.00000000	     80.00000000	      1.39626340	      0.00000000	      0.00000000	      0.00000000	     80.00000000	     -7.00000000	      0.00000000	     80.00000000	      1.39626340	      0.00000000	      0.00000000	      0.00000000	    -11.89746235	     -0.29025966	      3.16748759	      4.17055125	     -1.51756265	     10.63131512	      0.00000000	      7.05483120	    -70.00000021	    -24.99999983	      6.93488597	     -0.79948479	      1.37784988	      0.00000000	     19.29003988	    -70.00000021	    -24.99999983
1760625395.53394103	      5.76353804	     -2.08661666	     -0.09111713	      0.18729179	      0.83416987	      0.00017657	     80.00000000	     -7.00000000	      0.00000000	     80.00000000	      1.39626340	      0.00000000	      0.00000000	      0.00000000	     80.00000000	     -7.00000000	      0.00000000	     80.00000000	      1.39626340	      0.00000000	      0.00000000	      0.00000000	    -11.90848984	     -0.29187751	      3.17002868	      4.17771859	     -1.53719392	     10.63437077	      0.00000000	      7.05383373	    -70.00000021	    -24.99999983	      6.92156827	     -0.81041784	      1.37904468	      0.00000000	     19.29552095	    -70.00000021	    -24.99999983
1760625395.54394102	      5.75552598	     -2.08793442	     -0.09667046	      0.18720493	      0.83411657	      0.00016800	     80.00000000	     -7.00000000	      0.00000000	     80.00000000	      1.39626340	      0.00000000	      0.00000000	      0.00000000	     80.00000000	     -7.00000000	      0.00000000	     80.00000000	      1.39626340	      0.00000000	      0.00000000	      0.00000000	    -11.91759858	     -0.28905507	      3.16486971	      4.18054521	     -1.56970455	     10.63902457	      0.00000000	      7.05087357	    -70.00000021	    -24.99999983	      6.91179859	     -0.83489344	      1.38284127	      0.00000000	     19.30717345	    -70.00000021	    -24.99999983
1760625395.55394101	      5.75475202	     -2.08888432	     -0.09650907	      0.18712366	      0.83412370	      0.00014290	     80.00000000	     -7.00000000	      0.00000000	     80.00000000	      1.39626340	      0.00000000	      0.00000000	      0.00000000	     80.00000000	     -7.00000000	      0.00000000	     80.00000000	      1.39626340	      0.00000000	      0.00000000	      0.00000000	    -11.91869743	     -0.28962747	      3.16503231	      4.18029947	     -1.57270988	     10.63940770	      0.00000000	      7.05062038	    -70.00000021	    -24.99999983	      6.90941131	     -0.83746595	      1.38307826	      0.00000000	     19.30812724	    -70.00000021	    -24.99999983
1760625395.56394100	      5.74475583	     -2.09044266	     -0.09850209	      0.18704650	      0.83406445	      0.00011664	     80.00000000	     -7.00000000	      0.00000000	     80.00000000	      1.39626340	      0.00000000	      0.00000000	      0.00000000	     80.00000000	     -7.00000000	      0.00000000	     80.00000000	      1.39626340	      0.00000000	      0.00000000	      0.00000000	    -11.93006557	     -0.28700595	      3.16288753	      4.17948900	     -1.60357368	     10.64465718	      0.00000000	      7.04814769	    -70.00000021	    -24.99999983	      6.89592415	     -0.86592767	      1.38664329	      0.00000000	     19.31968839	    -70.00000021	    -24.99999983
1760625395.57394099	      5.74498625	     -2.09154280	     -0.09894374	      0.18697609	      0.83408014	      0.00007669	     80.00000000	     -7.00000000	      0.00000000	     80.00000000	      1.39626340	      0.00000000	      0.00000000	      0.00000000	     80.00000000	     -7.00000000	      0.00000000	     80.00000000	      1.39626340	      0.00000000	      0.00000000	      0.00000000	    -11.93009315	     -0.28749914	      3.16250765	      4.17890431	     -1.60571871	     10.64506583	      0.00000000	      7.04797899	    -70.00000021	    -24.99999983	      6.89522020	     -0.86903433	      1.38687224	      0.00000000	     19.32051350	    -70.00000021	    -24.99999983
